Coordinates
version=1
nRows=30
nColumns=33
inDegrees=yes

Units are S.I. units (second, meters, Newtons, ...)
Angles are in degrees.

endheader
time	ground_thorax_rot_x	ground_thorax_rot_y	ground_thorax_rot_z	ground_thorax_tx	ground_thorax_ty	ground_thorax_tz	clav_prot_r	clav_elev_r	scapula_abduction_r	scapula_elevation_r	scapula_upward_rot_r	scapula_winging_r	shoulder_elv_r	plane_of_elev_r	axial_rot_r	elbow_flexion_r	pro_sup_r	wrist_flex_r	wrist_dev_r	clav_prot_l	clav_elev_l	scapula_abduction_l	scapula_elevation_l	scapula_upward_rot_l	scapula_winging_l	shoulder_elv_l	plane_of_elev_l	axial_rot_l	elbow_flexion_l	pro_sup_l	wrist_flex_l	wrist_dev_l	
1.7100	-5.988790	4.671989	9.403208	-0.097863	1.027933	0.000818	16.399162	-11.016734	44.678933	-12.696365	27.615528	-13.671677	-2.556774	-52.715170	121.472932	-31.220553	-136.203024	1.269024	1.159865	26.730263	-11.461946	-40.342077	-4.588878	-22.958431	14.240474	59.911337	4.472509	16.865618	11.462596	24.512857	15.426912	-5.040972	
1.7200	-5.951915	4.672861	9.378459	-0.097542	1.028007	0.000883	16.409376	-10.962157	44.694578	-12.648893	27.611059	-13.713142	-2.576711	-52.742702	121.483627	-31.222290	-136.424097	1.312199	1.142314	26.689283	-11.435982	-40.279150	-4.610969	-22.954057	14.209265	59.885750	4.426820	16.795001	11.493765	24.319459	15.415295	-5.081106	
1.7300	-5.892768	4.662368	9.355335	-0.097240	1.027985	0.000954	16.425028	-10.853359	44.728987	-12.558229	27.617288	-13.793836	-2.615203	-52.778080	121.506162	-31.232270	-136.867444	1.400406	1.106959	26.609908	-11.397804	-40.156107	-4.636628	-22.930846	14.144026	59.832730	4.359919	16.652041	11.560972	23.930082	15.392390	-5.164056	
1.7400	-5.809342	4.643702	9.325559	-0.096959	1.027888	0.001052	16.448986	-10.704809	44.776200	-12.432958	27.620338	-13.905365	-2.666196	-52.834407	121.540425	-31.255397	-137.521042	1.529534	1.054495	26.491861	-11.343923	-39.972551	-4.673538	-22.898730	14.045452	59.759121	4.261355	16.440867	11.668877	23.358620	15.360087	-5.281727	
1.7500	-5.709387	4.605353	9.297886	-0.096717	1.027720	0.001151	16.489402	-10.555403	44.833432	-12.300937	27.600849	-14.026770	-2.715245	-52.932841	121.609569	-31.317114	-138.485158	1.711125	0.971833	26.315139	-11.277934	-39.694516	-4.722862	-22.864470	13.891132	59.674326	4.111854	16.125457	11.852022	22.524774	15.320760	-5.423504	
1.7600	-5.604800	4.555106	9.275500	-0.096552	1.027522	0.001236	16.545960	-10.448379	44.881609	-12.193031	27.535358	-14.127023	-2.742149	-53.076815	121.695076	-31.435305	-139.594791	1.915143	0.876119	26.104316	-11.207690	-39.359591	-4.785679	-22.847745	13.701947	59.600751	3.925883	15.761305	12.111865	21.581903	15.283223	-5.560162	
1.7700	-5.496728	4.490794	9.267861	-0.096461	1.027275	0.001319	16.624170	-10.378183	44.917836	-12.100248	27.406771	-14.210986	-2.760071	-53.258568	121.787752	-31.645532	-140.843037	2.150922	0.783836	25.856345	-11.135395	-38.961858	-4.863903	-22.856308	13.473394	59.539024	3.695145	15.351743	12.474166	20.550524	15.248918	-5.701569	
1.7800	-5.390819	4.429921	9.275060	-0.096472	1.027011	0.001402	16.712152	-10.352315	44.920976	-12.028528	27.211729	-14.263796	-2.764404	-53.458517	121.847544	-31.947905	-141.985277	2.381921	0.731388	25.611323	-11.070733	-38.564888	-4.951518	-22.899655	13.242572	59.501736	3.455101	14.981053	12.908077	19.656264	15.225135	-5.832281	
1.7900	-5.286237	4.365673	9.301211	-0.096547	1.026731	0.001503	16.815078	-10.364803	44.890844	-11.969434	26.937607	-14.290984	-2.773187	-53.673729	121.878123	-32.375297	-143.140407	2.638048	0.750643	25.343892	-11.021139	-38.126619	-5.040240	-22.970383	12.982152	59.492467	3.178679	14.605060	13.423471	18.837803	15.215027	-5.973314	
1.8000	-5.179123	4.311896	9.335698	-0.096683	1.026441	0.001630	16.909867	-10.388332	44.810656	-11.906691	26.609701	-14.295300	-2.799324	-53.886660	121.865938	-32.911108	-144.197272	2.903307	0.847048	25.073468	-10.986148	-37.679545	-5.124661	-23.058366	12.713272	59.506399	2.897463	14.277718	13.987036	18.194344	15.208798	-6.128939	
1.8100	-5.063665	4.261853	9.377058	-0.096836	1.026112	0.001799	16.989871	-10.391227	44.678985	-11.816003	26.238159	-14.292652	-2.871544	-54.091529	121.831768	-33.569751	-145.299596	3.207988	1.003024	24.776135	-10.959761	-37.186273	-5.205196	-23.150682	12.414718	59.530333	2.594743	13.961024	14.612534	17.606317	15.192441	-6.325023	
1.8200	-4.947877	4.224961	9.412630	-0.097006	1.025807	0.001985	17.031441	-10.405634	44.467449	-11.728359	25.837420	-14.247014	-2.971222	-54.297268	121.791467	-34.321455	-146.436658	3.529341	1.193029	24.457757	-10.944986	-36.656292	-5.276578	-23.242491	12.092681	59.575187	2.290883	13.667732	15.271335	17.107846	15.148831	-6.541624	
1.8300	-4.838271	4.191015	9.445033	-0.097180	1.025544	0.002176	17.039979	-10.457937	44.176245	-11.663119	25.397509	-14.144649	-3.094186	-54.520878	121.770014	-35.180279	-147.699245	3.875280	1.389498	24.106071	-10.937429	-36.069656	-5.346461	-23.340700	11.735444	59.643130	1.967519	13.376225	15.990738	16.613677	15.081646	-6.770653	
1.8400	-4.737627	4.169009	9.473674	-0.097373	1.025329	0.002368	17.006607	-10.538981	43.801611	-11.615844	24.932025	-13.986549	-3.245245	-54.760002	121.762637	-36.125733	-148.964970	4.219494	1.559503	23.748917	-10.926740	-35.472899	-5.425973	-23.453610	11.373818	59.724995	1.649895	13.148011	16.768104	16.192728	14.988488	-7.001346	
1.8500	-4.646082	4.159286	9.505100	-0.097590	1.025151	0.002573	16.942517	-10.642066	43.354499	-11.577717	24.430667	-13.783804	-3.436852	-55.012873	121.744162	-37.171278	-150.208966	4.558698	1.707140	23.399400	-10.908687	-34.887407	-5.524082	-23.594254	11.021108	59.818488	1.332852	12.998008	17.625778	15.879794	14.888059	-7.245150	
1.8600	-4.560833	4.162443	9.536828	-0.097837	1.025015	0.002789	16.851650	-10.758299	42.847977	-11.543106	23.902686	-13.546569	-3.666739	-55.281107	121.705867	-38.299741	-151.409003	4.889379	1.835802	23.063087	-10.879676	-34.322958	-5.643355	-23.761902	10.683991	59.917600	1.019861	12.931627	18.561473	15.672036	14.793575	-7.501911	
1.8700	-4.476360	4.172056	9.572521	-0.098113	1.024898	0.003028	16.748500	-10.869078	42.305957	-11.495692	23.348277	-13.297610	-3.947718	-55.566151	121.629771	-39.519160	-152.562475	5.221761	1.960309	22.741606	-10.835958	-33.782707	-5.789043	-23.960655	10.364494	60.014859	0.698380	12.947040	19.592492	15.543819	14.735364	-7.780925	
1.8800	-4.391414	4.184064	9.615236	-0.098419	1.024783	0.003295	16.635124	-10.955386	41.739054	-11.421373	22.776570	-13.051748	-4.292165	-55.865963	121.518440	-40.822108	-153.619782	5.557651	2.072259	22.439587	-10.771375	-33.275116	-5.967325	-24.192624	10.068557	60.103048	0.364818	13.054843	20.721446	15.473602	14.723917	-8.075089	
1.8900	-4.317357	4.198812	9.667179	-0.098744	1.024725	0.003576	16.512395	-11.069779	41.134054	-11.359428	22.169168	-12.774359	-4.703267	-56.205840	121.346193	-42.217127	-154.718017	5.897950	2.200822	22.143108	-10.702597	-32.775357	-6.167227	-24.463511	9.777177	60.216888	-0.010033	13.195685	21.951412	15.473080	14.796149	-8.389066	
1.9000	-4.249164	4.213149	9.719810	-0.099075	1.024720	0.003865	16.378116	-11.202152	40.495080	-11.303916	21.536606	-12.472028	-5.167961	-56.583934	121.132648	-43.685833	-155.877941	6.248559	2.340863	21.842316	-10.625077	-32.268516	-6.388430	-24.762648	9.482553	60.348803	-0.425196	13.347391	23.273365	15.486995	14.948710	-8.712195	
1.9100	-4.190485	4.220867	9.788124	-0.099411	1.024773	0.004157	16.231090	-11.364196	39.814473	-11.262074	20.870435	-12.135357	-5.693726	-57.011461	120.886332	-45.224607	-157.142119	6.608481	2.485680	21.534929	-10.539641	-31.750787	-6.633357	-25.096294	9.181548	60.501043	-0.898725	13.484420	24.684309	15.505362	15.197549	-9.037627	
1.9200	-4.134277	4.222276	9.858123	-0.099745	1.024855	0.004454	16.068840	-11.532510	39.097247	-11.217048	20.181901	-11.778767	-6.266827	-57.475901	120.626219	-46.821991	-158.476723	6.979107	2.600700	21.227241	-10.435556	-31.234362	-6.906884	-25.455382	8.883958	60.660606	-1.419586	13.610041	26.185481	15.486420	15.538498	-9.347598	
1.9300	-4.083938	4.217309	9.924584	-0.100065	1.024987	0.004744	15.891100	-11.728961	38.336568	-11.184949	19.462921	-11.387352	-6.873410	-57.983384	120.354070	-48.475957	-159.943336	7.364217	2.688454	20.911045	-10.319489	-30.705254	-7.202713	-25.837608	8.579543	60.842314	-1.998008	13.681975	27.771755	15.418774	15.957261	-9.638342	
1.9400	-4.020253	4.205850	9.969368	-0.100370	1.025101	0.005035	15.698022	-11.888983	37.556001	-11.118755	18.743508	-11.005796	-7.490578	-58.505404	120.098165	-50.159870	-161.375148	7.767986	2.707924	20.601042	-10.169496	-30.190905	-7.534407	-26.232408	8.289286	61.007296	-2.598621	13.735556	29.441064	15.254545	16.398284	-9.895086	
1.9500	-3.953305	4.188085	10.019189	-0.100666	1.025226	0.005324	15.491552	-12.046326	36.740739	-11.039473	17.997416	-10.610481	-8.137936	-59.057964	119.837999	-51.867076	-162.811011	8.201637	2.641340	20.292577	-10.002885	-29.682127	-7.891353	-26.648912	8.003638	61.175232	-3.260833	13.721835	31.193652	14.956511	16.868116	-10.092702	
1.9600	-3.883220	4.167627	10.069207	-0.100954	1.025338	0.005609	15.275807	-12.193315	35.896674	-10.939283	17.222483	-10.208889	-8.807879	-59.634206	119.571650	-53.594002	-164.220342	8.673305	2.481586	19.988366	-9.815725	-29.183979	-8.276022	-27.084779	7.725444	61.347252	-3.981348	13.626565	33.031830	14.523044	17.336304	-10.231470	
1.9700	-3.823146	4.151615	10.131806	-0.101243	1.025478	0.005884	15.057164	-12.374707	35.012744	-10.846624	16.387761	-9.773384	-9.505535	-60.244087	119.264917	-55.336006	-165.672908	9.195831	2.226851	19.681239	-9.628511	-28.682800	-8.671992	-27.542336	7.442101	61.554876	-4.790882	13.397491	34.952189	13.962476	17.794885	-10.306791	
1.9800	-3.767409	4.140351	10.198411	-0.101529	1.025604	0.006147	14.833039	-12.562023	34.096450	-10.741234	15.508444	-9.322299	-10.223686	-60.879308	118.938191	-57.083703	-167.101977	9.783778	1.863323	19.375130	-9.426106	-28.186503	-9.087845	-28.011702	7.161205	61.774823	-5.663700	13.065610	36.941974	13.288788	18.188442	-10.324961	
1.9900	-3.716297	4.132107	10.281115	-0.101816	1.025741	0.006397	14.600925	-12.769719	33.141233	-10.634260	14.581000	-8.844452	-10.968811	-61.552600	118.586570	-58.824238	-168.529827	10.442691	1.395154	19.065696	-9.217731	-27.687113	-9.515538	-28.492580	6.876388	62.003758	-6.603973	12.645574	38.982656	12.526700	18.522407	-10.291342	
2.0000	-3.664069	4.125790	10.358005	-0.102099	1.025860	0.006637	14.361506	-12.972841	32.163018	-10.509830	13.625870	-8.359350	-11.727268	-62.253774	118.224594	-60.555922	-169.892154	11.186046	0.832342	18.756715	-8.992701	-27.191712	-9.958452	-28.972411	6.594297	62.226387	-7.579988	12.188691	41.055690	11.734689	18.762033	-10.235753	
